<?xml version="1.0" standalone="no"?>
<!DOCTYPE svg PUBLIC "-//W3C//DTD SVG 20010904//EN"
 "http://www.w3.org/TR/2001/REC-SVG-20010904/DTD/svg10.dtd">
<svg version="1.0" xmlns="http://www.w3.org/2000/svg"
 width="32.000000pt" height="32.000000pt" viewBox="0 0 32.000000 32.000000"
 preserveAspectRatio="xMidYMid meet">

<g transform="translate(0.000000,32.000000) scale(0.100000,-0.100000)"
fill="#000000" stroke="none">
<path d="M107 234 c-48 -24 -67 -40 -63 -49 3 -8 -3 -19 -14 -25 -11 -6 -20
-15 -20 -21 0 -16 161 -89 198 -89 51 0 102 54 102 109 0 56 -40 101 -95 107
-32 3 -54 -3 -108 -32z m112 -51 c17 -10 31 -20 31 -23 0 -8 -56 -40 -69 -40
-6 0 -11 18 -11 40 0 45 5 47 49 23z"/>
</g>
</svg>
