<?xml version="1.0" standalone="no"?>
<!DOCTYPE svg PUBLIC "-//W3C//DTD SVG 20010904//EN"
 "http://www.w3.org/TR/2001/REC-SVG-20010904/DTD/svg10.dtd">
<svg version="1.0" xmlns="http://www.w3.org/2000/svg"
 width="128.000000pt" height="128.000000pt" viewBox="0 0 128.000000 128.000000"
 preserveAspectRatio="xMidYMid meet">

<g transform="translate(0.000000,128.000000) scale(0.100000,-0.100000)"
fill="#000000" stroke="none">
<path d="M665 1053 c-83 -30 -475 -229 -516 -262 -28 -22 -20 -37 36 -67 19
-10 35 -21 35 -24 0 -3 -41 -26 -91 -50 -100 -49 -124 -70 -115 -97 8 -23 550
-301 658 -337 344 -115 666 207 558 558 -37 120 -144 231 -270 281 -25 10 -82
19 -130 22 -75 4 -95 1 -165 -24z m269 -363 c44 -25 78 -49 78 -55 -2 -9 -80
-57 -244 -148 l-68 -38 0 186 0 186 78 -42 c42 -24 113 -63 156 -89z"/>
</g>
</svg>
