<?xml version="1.0" standalone="no"?><!DOCTYPE svg PUBLIC "-//W3C//DTD SVG 1.1//EN" "http://www.w3.org/Graphics/SVG/1.1/DTD/svg11.dtd"><svg t="1627889600364" class="icon" viewBox="0 0 1024 1024" version="1.1" xmlns="http://www.w3.org/2000/svg" p-id="9623" xmlns:xlink="http://www.w3.org/1999/xlink" width="200" height="200"><defs><style type="text/css"></style></defs><path d="M532 181.6c-66.4 24-380 183.2-412.8 209.6-22.4 17.6-16 29.6 28.8 53.6 15.2 8 28 16.8 28 19.2 0 2.4-32.8 20.8-72.8 40-80 39.2-99.2 56-92 77.6 6.4 18.4 440 240.8 526.4 269.6 275.2 92 532.8-165.6 446.4-446.4-29.6-96-115.2-184.8-216-224.8-20-8-65.6-15.2-104-17.6-60-3.2-76-0.8-132 19.2zM747.2 472c35.2 20 62.4 39.2 62.4 44-1.6 7.2-64 45.6-195.2 118.4L560 664.8V367.2l62.4 33.6c33.6 19.2 90.4 50.4 124.8 71.2z" fill="#d81e06" p-id="9624"></path></svg>